<svg width="35" height="35" viewBox="0 0 35 35" fill="none" xmlns="http://www.w3.org/2000/svg">
<rect width="35" height="35" rx="5" fill="#2689E0"/>
<path d="M13.7695 26C12.9648 26 12.3516 25.8984 11.9297 25.6953C11.5156 25.4922 11.2344 25.1602 11.0859 24.6992C10.9453 24.2383 10.875 23.625 10.875 22.8594V12.3359C10.875 11.5547 10.9453 10.9375 11.0859 10.4844C11.2344 10.0234 11.5156 9.69531 11.9297 9.5C12.3516 9.29688 12.9648 9.19531 13.7695 9.19531H16.9922C18.8672 9.19531 20.3086 9.53906 21.3164 10.2266C22.3242 10.9141 22.8281 11.8828 22.8281 13.1328C22.8281 13.75 22.6875 14.3125 22.4062 14.8203C22.125 15.3281 21.7539 15.7617 21.293 16.1211C20.8398 16.4805 20.3438 16.75 19.8047 16.9297V16.9766C20.4922 17.0703 21.1133 17.2969 21.668 17.6562C22.2227 18.0078 22.6641 18.4688 22.9922 19.0391C23.3281 19.6016 23.4961 20.25 23.4961 20.9844C23.4961 22.0781 23.2305 23 22.6992 23.75C22.1758 24.4922 21.4492 25.0547 20.5195 25.4375C19.5977 25.8125 18.5352 26 17.332 26H13.7695ZM14.6602 21.7461C14.6602 22.2695 14.7539 22.6445 14.9414 22.8711C15.1289 23.0977 15.4805 23.2109 15.9961 23.2109H16.8867C17.6758 23.2109 18.3086 23.0078 18.7852 22.6016C19.2695 22.1953 19.5117 21.6406 19.5117 20.9375C19.5117 20.2656 19.2773 19.7383 18.8086 19.3555C18.3398 18.9727 17.7344 18.7812 16.9922 18.7812H17.0039C16.8164 18.7812 16.6758 18.7539 16.582 18.6992C16.3789 18.5664 16.168 18.4141 15.9492 18.2422C15.7383 18.0625 15.5078 17.8477 15.2578 17.5977C15.1797 17.4961 15.1406 17.4219 15.1406 17.375C15.1406 17.3125 15.1797 17.2383 15.2578 17.1523C15.5078 16.9023 15.7383 16.6875 15.9492 16.5078C16.168 16.3281 16.3789 16.1758 16.582 16.0508C16.6914 15.9961 16.832 15.9688 17.0039 15.9688H16.9922C17.4531 15.9688 17.875 15.7969 18.2578 15.4531C18.6484 15.1094 18.8438 14.5703 18.8438 13.8359C18.8438 13.0938 18.6367 12.6016 18.2227 12.3594C17.8086 12.1094 17.2773 11.9844 16.6289 11.9844H15.9961C15.4805 11.9844 15.1289 12.0938 14.9414 12.3125C14.7539 12.5312 14.6602 12.9062 14.6602 13.4375V21.7461Z" fill="white"/>
</svg>
